<?xml version="1.0" encoding="UTF-8"?>
<svg id="Layer_1" xmlns="http://www.w3.org/2000/svg" version="1.1" viewBox="0 0 363.5 129.1">
  <!-- Generator: Adobe Illustrator 29.1.0, SVG Export Plug-In . SVG Version: 2.1.0 Build 142)  -->
  <defs>
    <style>
      .st0 {
        fill: none;
      }

      .st1 {
        fill: #fff;
      }

      .st2 {
        fill: #f4be18;
      }
    </style>
  </defs>
  <g>
    <polygon class="st2" points=".8 102.8 39.7 54 78.7 102.8 39.7 37.1 .8 102.8"/>
    <polygon class="st2" points="112.2 37.1 77.2 61.6 56.7 37.1 70.7 66.5 63.7 73.7 67.3 79.9 75.4 74.1 99.2 102.8 82 68.1 112.2 37.1"/>
    <polygon class="st2" points="35.6 102.8 61.4 84.2 57.8 79.8 35.6 102.8"/>
    <path class="st1" d="M126.2,85.3h-2.6l-.4.8h-1.4l2.8-6.4h.4l2.8,6.4h-1.4l-.4-.8ZM125,82.1l-.8,2.1h1.7l-.8-2.1Z"/>
    <path class="st1" d="M137.7,86.1l-1.6-2.2h-.9v2.2h-1.3v-6.3h2.4c1.3,0,2.3.8,2.3,2s-.4,1.4-1.1,1.8l1.8,2.5h-1.4ZM135.1,82.8h1.1c.6,0,.9-.4.9-.9s-.4-.9-.9-.9h-1.1v1.8Z"/>
    <polygon class="st1" points="146.1 81 144.1 81 144.1 79.9 149.4 79.9 149.4 81 147.4 81 147.4 86.1 146.1 86.1 146.1 81"/>
    <rect class="st1" x="155.3" y="79.9" width="1.3" height="6.3"/>
    <polygon class="st1" points="163 79.9 167.1 79.9 167.1 81 164.3 81 164.3 82.6 166.6 82.6 166.6 83.7 164.3 83.7 164.3 86.1 163 86.1 163 79.9"/>
    <rect class="st1" x="173.1" y="79.9" width="1.3" height="6.3"/>
    <path class="st1" d="M183.8,79.7c1.2,0,2.2.6,2.8,1.6l-1,.7c-.4-.7-1-1.1-1.8-1.1-1.2,0-2,.9-2,2.1s.9,2,2,2,1.3-.4,1.8-1.1l1,.7c-.5,1-1.6,1.6-2.8,1.6-1.8,0-3.4-1.4-3.3-3.2,0-1.8,1.5-3.3,3.3-3.2"/>
    <rect class="st1" x="192.7" y="79.9" width="1.3" height="6.3"/>
    <path class="st1" d="M204.1,85.3h-2.6l-.4.8h-1.4l2.8-6.4h.4l2.8,6.4h-1.4l-.4-.8ZM202.9,82.1l-.8,2.1h1.7l-.8-2.1Z"/>
    <polygon class="st1" points="211.7 79.9 213 79.9 213 85 215.8 85 215.8 86.1 211.7 86.1 211.7 79.9"/>
    <rect class="st1" x="229" y="79.9" width="1.3" height="6.3"/>
    <polygon class="st1" points="242 79.9 242 86.2 241.6 86.2 238 82.4 238 86.1 236.7 86.1 236.7 79.7 237.1 79.7 240.7 83.6 240.7 79.9 242 79.9"/>
    <polygon class="st1" points="249.9 81 247.9 81 247.9 79.9 253.2 79.9 253.2 81 251.2 81 251.2 86.1 249.9 86.1 249.9 81"/>
    <polygon class="st1" points="259 79.9 263.3 79.9 263.3 81 260.3 81 260.3 82.3 262.5 82.3 262.5 83.4 260.3 83.4 260.3 85 263.4 85 263.4 86.1 259 86.1 259 79.9"/>
    <polygon class="st1" points="269.5 79.9 270.8 79.9 270.8 85 273.5 85 273.5 86.1 269.5 86.1 269.5 79.9"/>
    <polygon class="st1" points="279.5 79.9 280.8 79.9 280.8 85 283.5 85 283.5 86.1 279.5 86.1 279.5 79.9"/>
    <rect class="st1" x="289.5" y="79.9" width="1.3" height="6.3"/>
    <path class="st1" d="M300.2,79.7c1.1,0,2,.5,2.6,1.4l-.9.7c-.4-.6-1-.9-1.7-.9-1.2,0-2,.9-2,2.1s.8,2.1,2.1,2.1,1.3-.3,1.7-.8v-.5h-1.7v-1.1h3v1.8c-.3.5-.7.9-1.2,1.2-.5.3-1.1.5-1.8.5-1.8,0-3.4-1.4-3.3-3.2,0-1.8,1.5-3.3,3.3-3.2"/>
    <polygon class="st1" points="309.3 79.9 313.6 79.9 313.6 81 310.6 81 310.6 82.3 312.8 82.3 312.8 83.4 310.6 83.4 310.6 85 313.7 85 313.7 86.1 309.3 86.1 309.3 79.9"/>
    <polygon class="st1" points="325.1 79.9 325.1 86.2 324.7 86.2 321.1 82.4 321.1 86.1 319.8 86.1 319.8 79.7 320.2 79.7 323.9 83.6 323.9 79.9 325.1 79.9"/>
    <path class="st1" d="M334.6,79.7c1.2,0,2.2.6,2.8,1.6l-1,.7c-.4-.7-1-1.1-1.8-1.1-1.2,0-2,.9-2,2.1s.9,2,2,2,1.3-.4,1.8-1.1l1,.7c-.5,1-1.6,1.6-2.8,1.6-1.8,0-3.4-1.4-3.3-3.2,0-1.8,1.5-3.3,3.3-3.2"/>
    <polygon class="st1" points="343.5 79.9 347.7 79.9 347.7 81 344.7 81 344.7 82.3 346.9 82.3 346.9 83.4 344.7 83.4 344.7 85 347.8 85 347.8 86.1 343.5 86.1 343.5 79.9"/>
    <path class="st1" d="M227.1,73.4c-.2,0-.2,0-.2-.2v-19.3c0-.2,0-.2.2-.2h3.3c.2,0,.2,0,.2.2v15.5c0,.2,0,.2.2.2h15.4c.1,0,.2,0,.2.2l-1.1,3.4c0,0,0,.1-.2.1h-18Z"/>
    <path class="st1" d="M136.1,53.8c0,0-.1-.1-.2-.1h-4.1c0,0-.1,0-.2.1l-9.7,19.4c0,0,0,.1,0,.2,0,0,0,.1.2.1h3.7c0,0,.1,0,.2-.1l7.8-15.5c0,0,0,0,.1,0,0,0,4.1,8.3,4.1,8.3,0,0,3.6,7.2,3.6,7.2,0,0,.1.1.2.1h3.7c0,0,.1,0,.2-.1,0,0,0-.1,0-.2l-9.7-19.4Z"/>
    <path class="st1" d="M161.4,53.7s0,0,0,0h-5.1c0,0,0,0-.1,0,0,0,0,0,0,.1l9.4,9,2.7-2.6-6.9-6.6Z"/>
    <path class="st1" d="M182.3,53.8s0,0,0-.1c0,0,0,0,0,0h-5.1s0,0,0,0l-5.4,5.2-5.2,5h0s-9.7,9.4-9.7,9.4c0,0,0,0,0,.1,0,0,0,0,0,0h5.1s0,0,0,0l7.2-6.9s0,0,.1,0,0,0,.1,0l7.2,6.9s0,0,0,0c0,0,0,0,0,0h5.1c0,0,0,0,.1,0,0,0,0,0,0-.1l-9.7-9.4c0,0,0-.2,0-.2l10.2-9.8Z"/>
    <path class="st1" d="M202.7,57.4h10.9c0,0,.1,0,.2,0,0,0,0-.1,0-.2l-1.1-3.3c0,0,0-.1-.2-.1h-18.2c-.2,0-.3,0-.3.3v3.4h8.7Z"/>
    <path class="st1" d="M213.5,69.6h-15.5c0,0-.2,0-.2,0,0,0,0-.1,0-.2v-3.7c0-.1,0-.2.2-.2h10.5c.1,0,.2,0,.2-.2l1.1-3.3c0,0,0-.1,0-.2,0,0,0,0-.2,0h-15.5v11.4c0,.2.1.3.3.3h18.2c0,0,.2,0,.2-.1l1.1-3.3c0,0,0-.1,0-.2,0,0-.1,0-.2,0"/>
    <path class="st1" d="M267.2,57.4h10.9c0,0,.1,0,.2,0,0,0,0-.1,0-.2l-1.1-3.3c0,0,0-.1-.2-.1h-18.2c-.2,0-.3,0-.3.3v3.4h8.7Z"/>
    <path class="st1" d="M278.1,69.6h-15.5c0,0-.2,0-.2,0,0,0,0-.1,0-.2v-3.7c0-.1,0-.2.2-.2h10.5c.1,0,.2,0,.2-.2l1.1-3.3c0,0,0-.1,0-.2,0,0,0,0-.2,0h-15.6v11.4c0,.2.1.3.3.3h18.2c0,0,.2,0,.2-.1l1.1-3.3c0,0,0-.1,0-.2,0,0-.1,0-.2,0"/>
    <path class="st1" d="M338,53.8c0,0,0-.1-.2-.1h-4.1c0,0-.1,0-.2.1l-9.7,19.4c0,0,0,.1,0,.2,0,0,0,.1.2.1h3.7c0,0,.1,0,.2-.1l7.8-15.5c0,0,0,0,.1,0,0,0,4.1,8.3,4.1,8.3,0,0,3.6,7.2,3.6,7.2,0,0,.1.1.2.1h3.7c0,0,.1,0,.2-.1,0,0,0-.1,0-.2l-9.7-19.4Z"/>
    <path class="st1" d="M312.6,73.2l-6.6-7.2c0,0,0,0,0,0,.9,0,1.7-.2,2.4-.5.8-.3,1.4-.7,1.9-1.2.5-.5,1-1.1,1.3-1.8.3-.7.5-1.5.5-2.3s-.2-1.6-.5-2.4c-.3-.8-.8-1.5-1.3-2-.6-.6-1.2-1.1-2-1.4-.7-.4-1.6-.5-2.5-.5h-15.2c-.1,0-.2,0-.2.2v3.6h3.8s0,0,0,0h11.5c.3,0,.6,0,.9.2.3.1.6.3.8.6.2.2.4.5.6.8.1.3.2.7.2,1s0,.7-.2.9c-.1.3-.3.5-.6.7-.2.2-.5.3-.8.4-.3,0-.6.1-.9.1h-15.4v11.1c0,.1,0,.2.2.2h3.4c.1,0,.2,0,.2-.2v-7.2c0-.1,0-.2.2-.2h6.7s0,0,.1,0l6.8,7.4s0,0,.1,0h4.4c0,0,0,0,.1,0,0,0,0,0,0-.1"/>
  </g>
  <rect class="st0" width="363.5" height="129.1"/>
</svg>