<svg width="149" height="29" viewBox="0 0 149 29" fill="none" xmlns="http://www.w3.org/2000/svg" class="w-[107px]"><path d="M137.802 28.4478C132.491 28.4478 129.053 24.4848 129.053 18.3243C129.053 12.1247 132.491 8.12235 137.802 8.12235C140.575 8.12235 143.075 9.49569 144.481 11.8108H144.637V0H148.27V28.2516H144.794V24.7987H144.637C143.27 27.0745 140.653 28.4478 137.802 28.4478ZM132.764 18.3243C132.764 22.7583 135.068 25.4657 138.779 25.4657C142.489 25.4657 144.755 22.719 144.755 18.3243C144.755 13.8904 142.45 11.1045 138.779 11.1045C135.068 11.1045 132.764 13.8512 132.764 18.3243Z" fill="black"></path><path d="M118.127 28.448C112.151 28.448 108.323 24.4849 108.323 18.3245C108.323 12.0856 112.151 8.12248 118.127 8.12248C123.673 8.12248 127.071 11.9678 127.071 18.2852V19.5016H112.073C112.346 23.2293 114.494 25.4658 118.127 25.4658C121.173 25.4658 122.931 24.1317 123.438 22.1698H126.993C126.368 25.8582 123.126 28.448 118.127 28.448ZM112.073 16.8334H123.556C123.36 13.1842 121.329 11.1046 118.127 11.1046C114.533 11.1046 112.424 13.145 112.073 16.8334Z" fill="black"></path><path d="M89.272 28.2516V0H92.9044V11.4969H93.0606C94.3885 9.33874 96.5367 8.12235 99.3098 8.12235C103.879 8.12235 106.34 11.1437 106.34 16.951V28.2516H102.708V16.951C102.708 13.0271 101.185 11.2222 97.9037 11.2222C94.5838 11.2222 92.9044 13.1449 92.9044 16.951V28.2516H89.272Z" fill="black"></path><path d="M78.3863 28.448C72.4105 28.448 68.5438 24.4849 68.5438 18.3245C68.5438 12.2425 72.4886 8.12248 78.3863 8.12248C83.1513 8.12248 86.5492 10.9084 87.057 15.0284H83.5028C82.995 12.3995 81.1984 11.1046 78.3863 11.1046C74.5196 11.1046 72.2543 13.8905 72.2543 18.3245C72.2543 22.7976 74.5586 25.4658 78.3863 25.4658C81.2765 25.4658 83.0341 24.2887 83.659 21.542H87.2132C86.6274 25.662 83.3075 28.448 78.3863 28.448Z" fill="black"></path><path d="M62.3569 8.31627H64.3098C64.9674 8.31631 65.5912 8.58448 66.0195 9.04926L67.6674 10.8434C67.8741 11.0401 67.7051 11.3617 67.4044 11.3617H62.3569V22.7214C62.3569 24.3302 63.2162 25.1933 64.7785 25.1933H67.7635V28.2516H64.3098C60.6384 28.2516 58.7245 26.2898 58.7244 22.6408V11.3622H54.7798V8.31583H58.7244V2.43284H62.3569V8.31627Z" fill="black"></path><path d="M45.3634 28.4478C39.3877 28.4478 35.5601 24.4847 35.5601 18.3243C35.5601 12.0854 39.3877 8.12233 45.3634 8.12233C50.9096 8.12233 54.3076 11.9677 54.3076 18.2851V19.5015H39.3096C39.583 23.2291 41.7311 25.4657 45.3634 25.4657C48.4099 25.4657 50.1675 24.1316 50.6752 22.1697H54.2295C53.6045 25.8581 50.3628 28.4478 45.3634 28.4478ZM39.3096 16.8333H50.7924C50.5971 13.1841 48.5661 11.1044 45.3634 11.1044C41.7702 11.1044 39.6611 13.1448 39.3096 16.8333Z" fill="black"></path><path fill-rule="evenodd" clip-rule="evenodd" d="M0 1.10836C0 0.498763 0.498763 0 1.10836 0H27.3396C27.9492 0 28.448 0.498763 28.448 1.10836V27.3396C28.448 27.9492 27.9492 28.448 27.3396 28.448H1.10836C0.498763 28.448 0 27.9492 0 27.3396V1.10836ZM23.468 23.8484H5.02618C4.80451 23.8484 4.63826 23.682 4.63826 23.4788V21.1643C4.63826 20.9611 4.82298 20.7948 5.02618 20.7948H20.4145C20.9989 20.7948 21.673 21.0719 22.0951 21.5522L23.7247 23.3196C23.9279 23.5228 23.7636 23.8484 23.468 23.8484Z" fill="black"></path></svg>