<svg width="154" height="48" viewBox="0 0 154 48" fill="none" xmlns="http://www.w3.org/2000/svg"><path d="M72.6994 14.5002C73.0483 14.5002 73.3613 14.7105 73.4879 15.0297L76.0004 21.3681C76.17 21.7956 75.9543 22.2772 75.5189 22.4436C75.0833 22.6095 74.593 22.3983 74.4235 21.9707L72.1207 16.1618L69.8176 21.9707C69.6911 22.2899 69.378 22.5001 69.0291 22.5001C68.6803 22.5001 68.3672 22.2899 68.2407 21.9707L65.9376 16.1618L63.6348 21.9707C63.4653 22.3983 62.9749 22.6095 62.5394 22.4436C62.104 22.2772 61.8883 21.7956 62.0579 21.3681L64.5705 15.0297C64.6969 14.7105 65.01 14.5002 65.3589 14.5002H66.5164C66.8653 14.5002 67.1784 14.7104 67.3049 15.0297L69.0291 19.379L70.7534 15.0297C70.8799 14.7104 71.193 14.5002 71.5418 14.5002H72.6994Z" fill="#F8FAFC"></path><path d="M83.6184 15.331C83.6184 14.8722 83.9973 14.5002 84.4645 14.5002C84.9317 14.5002 85.3106 14.8722 85.3106 15.331V18.3809C85.3106 20.6522 83.4285 22.5001 81.1152 22.5001C78.8018 22.5001 76.9196 20.6522 76.9196 18.3809V15.331C76.9196 14.8722 77.2985 14.5002 77.7658 14.5002C78.233 14.5002 78.6119 14.8722 78.6119 15.331V18.3809C78.6119 19.7361 79.7349 20.8386 81.1152 20.8386C82.4954 20.8386 83.6184 19.7361 83.6184 18.3809V15.331Z" fill="#F8FAFC"></path><path d="M90.8855 20.8386H93.971C94.4382 20.8386 94.8171 21.2106 94.8171 21.6694C94.8171 22.1282 94.4382 22.5001 93.971 22.5001H90.8854C88.5721 22.5001 86.69 20.6522 86.69 18.3809V15.331C86.69 14.8722 87.0689 14.5002 87.5361 14.5002C88.0033 14.5002 88.3822 14.8722 88.3822 15.331V18.3809C88.3822 19.7361 89.5052 20.8386 90.8855 20.8386Z" fill="#F8FAFC"></path><path d="M115.64 14.5569C115.205 14.3908 114.714 14.6021 114.545 15.0298L112.242 20.8387L109.939 15.0298C109.77 14.6021 109.278 14.3909 108.843 14.5569C108.408 14.7233 108.192 15.2048 108.362 15.6324L110.875 21.9708C111.001 22.29 111.314 22.5002 111.663 22.5002H112.821C113.169 22.5002 113.482 22.29 113.609 21.9708L116.122 15.6325C116.291 15.2048 116.076 14.7234 115.64 14.5569Z" fill="#F8FAFC"></path><path d="M95.6135 14.5002H101.458C101.925 14.5002 102.304 14.8722 102.304 15.331C102.304 15.7898 101.925 16.1618 101.458 16.1618H99.3817V21.6694C99.3817 22.1282 99.0028 22.5001 98.5356 22.5001C98.0684 22.5001 97.6895 22.1282 97.6895 21.6694V16.1618H95.6135C95.1463 16.1618 94.7674 15.7898 94.7674 15.331C94.7674 14.8722 95.1463 14.5002 95.6135 14.5002Z" fill="#F8FAFC"></path><path d="M105.15 14.5002C104.682 14.5002 104.304 14.8722 104.304 15.331V21.6694C104.304 22.1282 104.682 22.5001 105.15 22.5001C105.617 22.5001 105.996 22.1282 105.996 21.6694V15.331C105.996 14.8722 105.617 14.5002 105.15 14.5002Z" fill="#F8FAFC"></path><path d="M125.534 15.331C125.534 15.7898 125.155 16.1618 124.688 16.1618H119.227V17.6648H121.765C122.232 17.6648 122.611 18.0367 122.611 18.4956C122.611 18.9544 122.232 19.3263 121.765 19.3263H119.227V20.8386H124.688C125.155 20.8386 125.534 21.2106 125.534 21.6694C125.534 22.1282 125.155 22.5001 124.688 22.5001H118.381C117.914 22.5001 117.535 22.1282 117.535 21.6694V15.331C117.535 14.8722 117.914 14.5002 118.381 14.5002H124.688C125.155 14.5002 125.534 14.8722 125.534 15.331Z" fill="#F8FAFC"></path><path d="M153.154 20.8386H147.694V19.3263H150.231C150.699 19.3263 151.077 18.9544 151.077 18.4956C151.077 18.0367 150.699 17.6648 150.231 17.6648H147.694V16.1618H153.154C153.621 16.1618 154 15.7898 154 15.331C154 14.8722 153.621 14.5002 153.154 14.5002H146.848C146.38 14.5002 146.001 14.8722 146.001 15.331V21.6694C146.001 22.1282 146.38 22.5001 146.848 22.5001H153.154C153.621 22.5001 154 22.1282 154 21.6694C154 21.2106 153.621 20.8386 153.154 20.8386Z" fill="#F8FAFC"></path><path d="M127.844 14.5002H132.611C133.968 14.5002 135.071 15.5838 135.071 16.9156C135.071 17.5536 134.816 18.1329 134.403 18.5651C134.817 18.9242 135.071 19.4357 135.071 20.0778V21.6694C135.071 22.1282 134.692 22.5001 134.225 22.5001C133.758 22.5001 133.379 22.1282 133.379 21.6694V20.0778C133.379 19.6736 133.052 19.3454 132.644 19.3293C132.639 19.3294 132.634 19.3298 132.628 19.3301C132.626 19.3303 132.624 19.3305 132.621 19.3306C132.618 19.3308 132.615 19.3309 132.611 19.3309H130.688C130.221 19.3309 129.842 18.959 129.842 18.5002C129.842 18.0414 130.221 17.6694 130.688 17.6694H132.611C133.035 17.6694 133.379 17.3313 133.379 16.9156C133.379 16.4999 133.035 16.1618 132.611 16.1618H128.69V21.6694C128.69 22.1282 128.311 22.5001 127.844 22.5001C127.377 22.5001 126.998 22.1282 126.998 21.6694V15.331C126.998 14.8722 127.377 14.5002 127.844 14.5002Z" fill="#F8FAFC"></path><path d="M138.999 16.1618H143.767C144.234 16.1618 144.613 15.7898 144.613 15.331C144.613 14.8722 144.234 14.5002 143.767 14.5002H138.999C137.643 14.5002 136.539 15.5838 136.539 16.9156C136.539 18.2474 137.643 19.3309 139 19.3309L142.153 19.3286C142.576 19.3286 142.921 19.6668 142.921 20.0824C142.921 20.4981 142.576 20.8363 142.153 20.8363H137.386C136.918 20.8363 136.539 21.2082 136.539 21.667C136.539 22.1258 136.918 22.4978 137.386 22.4978H142.153C143.509 22.4978 144.613 21.4143 144.613 20.0824C144.613 18.7506 143.509 17.6671 142.152 17.6671L138.999 17.6694C138.576 17.6694 138.232 17.3313 138.232 16.9156C138.232 16.4999 138.576 16.1618 138.999 16.1618Z" fill="#F8FAFC"></path><path d="M83 32.924C83 33.9747 83.8149 34.5001 85.4447 34.5001C86.0238 34.5001 86.5671 34.4433 87.0745 34.3299V33.6672C86.5014 33.8105 85.976 33.8822 85.4984 33.8822C84.388 33.8822 83.8328 33.5478 83.8328 32.8792V30.1569C83.8328 29.7211 84.0059 29.4286 84.3522 29.2793C84.5134 29.2137 84.6805 29.1689 84.8537 29.145C85.0268 29.1151 85.2298 29.1002 85.4626 29.1002C85.9402 29.1002 86.4656 29.1719 87.0387 29.3151V28.6704C86.5312 28.557 85.9999 28.5002 85.4447 28.5002C83.8149 28.5002 83 29.0555 83 30.1659V32.924Z" fill="#F8FAFC"></path><path fill-rule="evenodd" clip-rule="evenodd" d="M90.5083 34.4998C88.8844 34.4998 88.0725 33.9745 88.0725 32.9238V30.1746C88.0725 29.0642 88.8844 28.509 90.5083 28.509C92.15 28.509 92.9709 29.0612 92.9709 30.1657V32.9238C92.9709 33.485 92.744 33.8879 92.2903 34.1327C91.8366 34.3775 91.2426 34.4998 90.5083 34.4998ZM90.5262 33.9178C91.5948 33.9178 92.1291 33.5835 92.1291 32.9148V30.1477C92.1291 29.4313 91.5918 29.0732 90.5172 29.0732C89.9978 29.0732 89.5978 29.1537 89.3173 29.3149C89.0426 29.4761 88.9053 29.7537 88.9053 30.1477V32.9148C88.9053 33.5835 89.4456 33.9178 90.5262 33.9178Z" fill="#F8FAFC"></path><path d="M129.761 34.4998C129.487 34.4998 129.242 34.4879 129.027 34.464C128.818 34.4401 128.597 34.3954 128.364 34.3297C128.102 34.2581 127.881 34.1685 127.702 34.0611C127.523 33.9476 127.376 33.7954 127.263 33.6044C127.144 33.4014 127.084 33.1745 127.084 32.9238V30.1746C127.084 29.8403 127.17 29.5537 127.344 29.3149C127.517 29.0761 127.755 28.903 128.06 28.7955C128.352 28.6941 128.63 28.6224 128.893 28.5806C129.161 28.5329 129.451 28.509 129.761 28.509C130.502 28.509 131.17 28.5567 131.767 28.6523V29.3239C131.54 29.2702 131.215 29.2224 130.791 29.1806C130.373 29.1329 130.036 29.109 129.779 29.109C128.555 29.109 127.944 29.4612 127.944 30.1657V32.9059C127.944 33.0969 128 33.2641 128.114 33.4073C128.233 33.5506 128.394 33.6551 128.597 33.7208C128.788 33.7924 128.979 33.8431 129.17 33.873C129.361 33.8969 129.576 33.9088 129.815 33.9088C130.215 33.9088 130.642 33.8551 131.096 33.7476V31.7149H129.734V31.1059H131.902V34.2312C131.125 34.4103 130.412 34.4998 129.761 34.4998Z" fill="#F8FAFC"></path><path d="M120.792 28.5989H121.839L125 33.3988V28.5989H125.762V34.4107H124.714L121.553 29.5303V34.4107H120.792V28.5989Z" fill="#F8FAFC"></path><path d="M119.29 28.5989H118.422V34.4107H119.29V28.5989Z" fill="#F8FAFC"></path><path d="M114.616 29.2079H112.646V28.5989H117.455V29.2079H115.494V34.4107H114.616V29.2079Z" fill="#F8FAFC"></path><path d="M108.565 34.4376C108.803 34.4793 109.081 34.5002 109.397 34.5002C110.914 34.5002 111.672 33.9749 111.672 32.9242V28.5989H110.839V32.9152C110.839 33.2794 110.72 33.5391 110.481 33.6943C110.248 33.8435 109.893 33.9182 109.415 33.9182C108.938 33.9182 108.577 33.8435 108.332 33.6943C108.087 33.5391 107.965 33.2794 107.965 32.9152V28.5989H107.132V32.9242C107.132 33.2406 107.195 33.5092 107.32 33.7301C107.451 33.951 107.636 34.1152 107.875 34.2226C108.102 34.3241 108.332 34.3958 108.565 34.4376Z" fill="#F8FAFC"></path><path fill-rule="evenodd" clip-rule="evenodd" d="M102.025 28.5989H103.923C104.192 28.5989 104.407 28.6049 104.568 28.6168C104.735 28.6288 104.911 28.6557 105.096 28.6974C105.287 28.7392 105.44 28.8019 105.553 28.8855C105.672 28.9691 105.774 29.0825 105.857 29.2258C105.935 29.3631 105.974 29.5362 105.974 29.7452V30.9541C105.974 31.4377 105.786 31.7869 105.41 32.0018C105.04 32.2108 104.49 32.3152 103.762 32.3152H102.893V34.4107H102.025V28.5989ZM103.878 31.769C104.254 31.769 104.556 31.7003 104.783 31.563C105.01 31.4257 105.123 31.2078 105.123 30.9093V29.8526C105.123 29.6914 105.081 29.5601 104.998 29.4586C104.914 29.3512 104.795 29.2765 104.64 29.2347C104.49 29.1989 104.365 29.175 104.263 29.1631C104.162 29.1512 104.028 29.1452 103.86 29.1452H102.884V31.769H103.878Z" fill="#F8FAFC"></path><path d="M95.61 28.5989H94.3116V34.4107H95.0907V29.4944H95.1354L97.0607 34.4107H97.8398L99.7114 29.4944H99.7562V34.4107H100.517V28.5989H99.2637L97.4995 33.4436L97.4727 33.4346L95.61 28.5989Z" fill="#F8FAFC"></path><path d="M20.2685 11.2227C22.0191 10.438 23.9582 10 26 10C28.0418 10 29.9809 10.438 31.7315 11.2227H20.2685Z" fill="#F01438"></path><path d="M14.7841 15.595H25.2589C25.2767 15.6185 25.2936 15.6427 25.3105 15.6668C25.3241 15.6862 25.3378 15.7058 25.3518 15.7249L25.3523 15.7185L25.3528 15.7112H26.6492C26.5801 15.8047 26.5116 15.9002 26.4437 15.9964H37.5238C37.5126 15.9805 37.5016 15.9644 37.4905 15.9483C37.4742 15.9245 37.4574 15.9001 37.4406 15.8767H49.3677C48.9781 15.3332 48.5511 14.8185 48.0899 14.3367H36.1618C36.1392 14.3132 36.1161 14.2902 36.093 14.2671C36.0763 14.2505 36.0595 14.2339 36.043 14.217H27.93C27.9015 14.2461 27.8729 14.2749 27.8442 14.3038C27.7793 14.3691 27.7141 14.4346 27.6515 14.5022H24.3502L24.3442 14.5019L24.3393 14.5015C24.354 14.5174 24.3689 14.5332 24.3838 14.5489C24.4056 14.5719 24.4274 14.5949 24.4487 14.6184H15.5947C15.5721 14.6434 15.5492 14.6681 15.5264 14.6929C15.4848 14.738 15.4429 14.7833 15.4026 14.8296H3.46019C3.30278 15.0105 3.14956 15.195 3.00137 15.3838H14.9438C14.9073 15.4304 14.8718 15.4778 14.8363 15.5253C14.8189 15.5486 14.8016 15.5719 14.7841 15.595Z" fill="#F01438"></path><path d="M12.5194 20.0833H24.468C24.4199 20.2461 24.3771 20.4111 24.3348 20.5762H27.6964C27.6929 20.5623 27.6896 20.5484 27.6862 20.5345L27.6797 20.5073L27.674 20.4847H39.6092L39.5966 20.436L39.5893 20.4074C39.5856 20.3932 39.5819 20.3791 39.5781 20.365H51.5039C51.3605 19.8387 51.1876 19.3247 50.9867 18.8249H39.0603C39.0509 18.8016 39.0411 18.7784 39.0314 18.7553C39.0244 18.7386 39.0174 18.722 39.0105 18.7052H27.0756C27.0688 18.6887 27.0615 18.6723 27.0543 18.656C27.0481 18.642 27.0419 18.6278 27.036 18.6137H24.9956C24.9269 18.7769 24.8584 18.9403 24.7957 19.1066H12.848C12.8388 19.1309 12.8295 19.1551 12.8203 19.1793C12.8027 19.2251 12.7849 19.2715 12.7682 19.3179H0.82579C0.76006 19.5009 0.69766 19.6855 0.639379 19.8721H12.5818C12.5672 19.9188 12.5536 19.966 12.5399 20.0132L12.5194 20.0833Z" fill="#F01438"></path><path d="M44.0378 11.3882C42.1949 10.4986 40.1285 10 37.9459 10C35.81 10 33.7858 10.4784 31.973 11.3326C31.9516 11.3427 31.9304 11.3533 31.9092 11.3639C31.8929 11.3721 31.8766 11.3803 31.8601 11.3882H44.0378Z" fill="#F01438"></path><path d="M17.134 10.3404C17.7706 10.4832 18.3908 10.669 18.9916 10.895L18.9897 10.8956H9.11488C9.71475 10.6699 10.334 10.484 10.9695 10.3414H17.1351L17.134 10.3404Z" fill="#F01438"></path><path d="M12.0533 22.3276H24.0005C23.9802 22.4908 23.9653 22.6556 23.9507 22.8205H28.0799C28.0787 22.8067 28.0777 22.7927 28.0767 22.7788C28.0755 22.7621 28.0743 22.7455 28.0728 22.729H40.0085L40.0067 22.7088L40.0042 22.6796C40.0022 22.6561 40.0002 22.6326 39.9978 22.6093H51.9236C51.8693 22.0868 51.7859 21.5731 51.6763 21.0693H39.7515L39.7442 21.0369L39.7353 20.9995C39.7314 20.983 39.7274 20.9661 39.7236 20.9496H27.788C27.7842 20.9329 27.78 20.9164 27.7758 20.8999C27.7723 20.886 27.7688 20.872 27.7655 20.858H24.266C24.2277 21.0216 24.1897 21.1853 24.1572 21.3509H12.2088L12.2021 21.3848L12.1941 21.4246C12.1849 21.4702 12.1757 21.5162 12.1673 21.5622H0.224899C0.191819 21.7456 0.163035 21.9306 0.13714 22.1164H12.0795C12.073 22.1636 12.0673 22.2111 12.0616 22.2586L12.0533 22.3276Z" fill="#F01438"></path><path d="M23.1409 13.3507H16.9026C16.9285 13.3287 16.9542 13.3066 16.9799 13.2845C17.0366 13.2356 17.0934 13.1867 17.1515 13.1395H5.20913C5.44566 12.9472 5.68815 12.7621 5.93701 12.5853H17.8795C17.957 12.5303 18.0361 12.4776 18.1153 12.4249L18.1914 12.3741H21.8519C21.8153 12.3495 21.778 12.3258 21.7408 12.3021C21.7174 12.2873 21.694 12.2724 21.6708 12.2573L21.6735 12.2574L21.6773 12.2576L21.6845 12.2579H30.3159C30.4669 12.1598 30.6204 12.0652 30.7752 11.9727H33.1918L33.2285 11.9945C33.2829 12.0269 33.3373 12.0592 33.3911 12.0924H45.319C46.0482 12.5436 46.7335 13.0594 47.3661 13.6324H35.4376C35.4634 13.6557 35.4886 13.6797 35.5138 13.7036C35.5308 13.7198 35.548 13.7361 35.5652 13.7521H28.4075C28.4366 13.7251 28.4656 13.6979 28.4945 13.6707C28.5678 13.6019 28.6411 13.5331 28.7168 13.4669H23.2845C23.2823 13.4669 23.2784 13.4672 23.2784 13.4672L23.2737 13.4675C23.2564 13.4524 23.2392 13.4371 23.222 13.4219C23.1952 13.398 23.1682 13.374 23.1409 13.3507Z" fill="#F01438"></path><path d="M13.3986 17.8385H25.3465C25.2663 18.0007 25.1917 18.1659 25.1176 18.3314H26.9139L26.9043 18.3094L26.8962 18.2904C26.8891 18.2736 26.8819 18.2566 26.8743 18.24H38.8097C38.8023 18.2236 38.795 18.2072 38.7878 18.1908C38.7773 18.1672 38.7669 18.1436 38.756 18.1202H50.6808C50.4322 17.5879 50.1515 17.0737 49.8409 16.5802H37.9143C37.8996 16.5568 37.8844 16.5338 37.8692 16.5107C37.8582 16.494 37.8472 16.4773 37.8363 16.4605H26.1285C26.0827 16.5311 26.0374 16.6019 25.9934 16.6728C25.9546 16.7355 25.9161 16.7985 25.8783 16.8619H13.9305C13.916 16.8862 13.9013 16.9104 13.8866 16.9347C13.8589 16.9805 13.8309 17.0266 13.8042 17.0731H1.86174C1.75725 17.2552 1.65716 17.4402 1.56065 17.6273H13.5031C13.4786 17.6749 13.4551 17.723 13.4316 17.7712L13.3986 17.8385Z" fill="#F01438"></path><path d="M28.0728 25.4374H40.0085C40.0069 25.4539 40.0055 25.4704 40.0042 25.4869C40.0022 25.5103 40.0002 25.5338 39.9978 25.5571H51.9235C51.8693 26.0795 51.7859 26.5932 51.6763 27.097H39.7515L39.7443 27.1291L39.7352 27.1675L39.7321 27.1804L39.7236 27.2168H27.788L27.7822 27.2412L27.776 27.2659L27.7716 27.2831L27.7655 27.3083H24.266C24.2277 27.1447 24.1897 26.9811 24.1572 26.8154H12.2088C12.204 26.7908 12.1991 26.7663 12.1941 26.7418C12.1849 26.6961 12.1757 26.6501 12.1673 26.6041H0.224899C0.191828 26.4207 0.163035 26.2358 0.13714 26.05H12.0795C12.073 26.0028 12.0673 25.9553 12.0616 25.9078L12.0533 25.8387H24.0005C23.9802 25.6755 23.9652 25.5107 23.9507 25.3458H28.0799C28.0787 25.3597 28.0777 25.3736 28.0767 25.3876C28.0755 25.4042 28.0743 25.4209 28.0728 25.4374Z" fill="#F01438"></path><path d="M31.8602 36.778L31.891 36.7932L31.9088 36.8021L31.9462 36.8207L31.973 36.8336C33.7859 37.6879 35.8101 38.1662 37.946 38.1662C40.1285 38.1662 42.1949 37.6677 44.0378 36.778H31.8602Z" fill="#F01438"></path><path d="M40.0477 23.2435L40.0496 23.2708C40.0505 23.2848 40.0514 23.2987 40.0521 23.3127H51.9789C51.9926 23.5677 52 23.8243 52 24.0827C52 24.3412 51.9925 24.5978 51.9789 24.8528H40.0521C40.0509 24.8758 40.0493 24.8988 40.0478 24.9218C40.0466 24.9386 40.0454 24.9555 40.0444 24.9725H28.109C28.108 24.9891 28.1066 25.0057 28.1052 25.0222C28.104 25.0361 28.1028 25.05 28.1019 25.064H23.9288C23.9177 24.9002 23.9068 24.7363 23.9013 24.5711H11.9532L11.9505 24.5009C11.9487 24.4539 11.9469 24.407 11.9459 24.3598H0.00348718C0.00171285 24.2676 0 24.1754 0 24.0827C0 23.9901 0.00171285 23.8979 0.00348718 23.8056H11.9459C11.9469 23.7585 11.9487 23.7115 11.9505 23.6646L11.9532 23.5944H23.9012C23.9068 23.4292 23.9176 23.2652 23.9288 23.1015H28.1019C28.1028 23.1154 28.104 23.1292 28.1052 23.1431C28.1066 23.1597 28.108 23.1763 28.109 23.193H40.0444C40.0454 23.2099 40.0466 23.2267 40.0477 23.2435Z" fill="#F01438"></path><path d="M39.6092 27.6817H27.6739C27.6783 27.6652 27.6822 27.6486 27.6862 27.6319L27.6907 27.6131L27.6964 27.5901H24.3348C24.3771 27.7553 24.4199 27.9203 24.468 28.0831H12.5194L12.54 28.1535C12.5536 28.2006 12.5673 28.2477 12.5818 28.2943H0.639379C0.69766 28.4808 0.76006 28.6655 0.82579 28.8485H12.7682C12.7848 28.8947 12.8024 28.9405 12.8199 28.9862L12.837 29.031L12.848 29.0598H24.7957C24.8584 29.2261 24.9269 29.3894 24.9956 29.5527H27.0359C27.0419 29.5385 27.0482 29.5244 27.0544 29.5103C27.0616 29.494 27.0688 29.4776 27.0756 29.4612H39.0105C39.0173 29.4446 39.0242 29.4281 39.0311 29.4117C39.041 29.3883 39.0508 29.365 39.0603 29.3414H50.9867C51.1876 28.8417 51.3605 28.3277 51.5039 27.8014H39.578C39.5844 27.7779 39.5905 27.7543 39.5965 27.7307L39.6092 27.6817Z" fill="#F01438"></path><path d="M31.7315 36.9439C29.9809 37.7287 28.0418 38.1667 26 38.1667C23.9582 38.1667 22.0191 37.7287 20.2685 36.9439H31.7315Z" fill="#F01438"></path><path d="M35.5652 34.4142H28.4075L28.4484 34.4524L28.4939 34.4951C28.5674 34.5641 28.6409 34.633 28.7168 34.6994H23.273C23.2555 34.7147 23.2382 34.7301 23.2208 34.7455C23.1944 34.769 23.1678 34.7926 23.1409 34.8156H16.9027L16.9509 34.8569L16.9786 34.8808C17.0358 34.93 17.093 34.9793 17.1516 35.0268H5.20913C5.44566 35.2191 5.68815 35.4042 5.93708 35.581H17.8795C17.957 35.6361 18.0362 35.6888 18.1154 35.7415L18.1914 35.7923H21.8518C21.8154 35.8167 21.7784 35.8402 21.7414 35.8638C21.7182 35.8786 21.6948 35.8935 21.6716 35.9085H30.316C30.4669 36.0065 30.6204 36.1011 30.7752 36.1936H33.1918L33.2338 36.1687C33.2864 36.1374 33.3391 36.1061 33.3911 36.0739H45.319C46.0483 35.6227 46.7334 35.1069 47.3662 34.5339H35.4376C35.4632 34.5108 35.4882 34.487 35.5132 34.4633C35.5304 34.4469 35.5478 34.4304 35.5652 34.4142Z" fill="#F01438"></path><path d="M26.8743 29.926H38.8097C38.8023 29.9424 38.795 29.9588 38.7878 29.9752C38.7773 29.9988 38.7669 30.0224 38.756 30.0458H50.6808C50.4322 30.5781 50.1515 31.0922 49.8409 31.5857H37.9143C37.8994 31.6094 37.8841 31.6327 37.8687 31.6559C37.858 31.6723 37.8469 31.689 37.8363 31.7054H26.1331C26.1166 31.6798 26.0998 31.6544 26.0829 31.629C26.0552 31.5871 26.0274 31.5451 26.0009 31.5024C25.9962 31.5021 25.9922 31.5026 25.9876 31.5024L25.9935 31.4933C25.9546 31.4305 25.9162 31.3675 25.8783 31.3041H13.9306C13.9212 31.2884 13.9118 31.2727 13.9023 31.2571C13.8975 31.2492 13.8928 31.2414 13.888 31.2335C13.8598 31.187 13.8313 31.1401 13.8042 31.0928H1.86174C1.7573 30.9107 1.65715 30.7258 1.56065 30.5387H13.5031C13.4784 30.4908 13.4547 30.4423 13.4311 30.3938L13.3986 30.3274H25.3465C25.2663 30.1653 25.1917 30 25.1177 29.8345H26.914C26.9078 29.8484 26.9018 29.8624 26.8959 29.8765L26.8868 29.8978C26.8827 29.9073 26.8786 29.9167 26.8743 29.926Z" fill="#F01438"></path><path d="M9.11494 37.2706C9.7148 37.4963 10.334 37.6821 10.9697 37.8248H17.135C17.7716 37.6819 18.392 37.4968 18.9929 37.2706L18.9897 37.2706L9.11494 37.2706Z" fill="#F01438"></path><path d="M26.4466 32.1699H37.5238C37.5121 32.1865 37.5007 32.2032 37.4892 32.2199C37.4732 32.2433 37.4571 32.2666 37.4406 32.2896H49.3677C48.9781 32.8332 48.551 33.3478 48.0899 33.8296H36.1618C36.1392 33.8533 36.116 33.8763 36.0928 33.8994C36.0761 33.916 36.0595 33.9325 36.043 33.9493H27.93C27.9015 33.9203 27.8728 33.8914 27.8442 33.8626C27.7792 33.7972 27.7142 33.7318 27.6515 33.6642H24.3398C24.3546 33.6483 24.3695 33.6325 24.3844 33.6168C24.406 33.594 24.4276 33.5712 24.4487 33.548H15.5947C15.572 33.5229 15.5491 33.4981 15.5262 33.4732C15.4846 33.4281 15.4429 33.383 15.4026 33.3367H3.46019C3.30278 33.1559 3.14956 32.9713 3.00137 32.7825H14.9438C14.9068 32.7354 14.871 32.6874 14.8351 32.6394C14.8181 32.6167 14.8012 32.5939 14.7841 32.5713H25.2589C25.2758 32.5489 25.292 32.5259 25.3081 32.5029C25.3212 32.4841 25.3344 32.4653 25.348 32.4468L25.3503 32.4509L25.3528 32.4551H26.6492C26.5968 32.3842 26.5462 32.312 26.4956 32.2398C26.4793 32.2165 26.463 32.1932 26.4466 32.1699Z" fill="#F01438"></path></svg>