<svg xmlns="http://www.w3.org/2000/svg" width="100%" viewBox="0 0 191 26" fill="none"><path d="M19.515 25.1687C18.5917 24.8507 17.7698 24.3813 17.0495 23.7556C16.3292 23.1315 15.563 22.2874 14.7546 21.2198L0 1.34082H8.15504L20.8617 18.6324C21.1644 19.0416 21.4499 19.3355 21.7161 19.5178C21.9824 19.7 22.3426 19.7894 22.7966 19.7894C23.2257 19.7894 23.5935 19.6931 23.8962 19.5006C24.1989 19.308 24.4651 19.0295 24.6931 18.6668L37.4745 1.34082H45.5529L30.9497 21.1854C30.216 22.2289 29.5015 23.0627 28.8061 23.6868C28.1107 24.3109 27.2754 24.7939 26.3023 25.1343C25.3291 25.4747 24.1586 25.6449 22.7947 25.6449C21.5303 25.6449 20.4365 25.4868 19.5131 25.1687H19.515Z" fill="currentColor"></path><path d="M64.2332 2.82298C64.9535 2.19891 65.7753 1.72786 66.6986 1.40981C67.622 1.09176 68.7139 0.933594 69.9802 0.933594C71.3461 0.933594 72.5146 1.10379 73.4878 1.44419C74.461 1.78459 75.2962 2.26768 75.9916 2.89175C76.687 3.51581 77.4015 4.34961 78.1352 5.39316L92.7385 25.2377H84.66L71.8786 7.91177C71.6507 7.54902 71.3863 7.27051 71.0817 7.07796C70.779 6.88541 70.4112 6.78914 69.9821 6.78914C69.5262 6.78914 69.166 6.88025 68.9017 7.06077C68.6354 7.243 68.3519 7.53698 68.0473 7.94615L55.3406 25.2377H47.1855L61.9401 5.35878C62.7485 4.29288 63.5148 3.44704 64.2351 2.82298H64.2332Z" fill="currentColor"></path><path d="M103.358 19.994H131.655C132.463 19.994 133.065 19.8238 133.457 19.4834C133.848 19.143 134.046 18.6324 134.046 17.9516C134.046 17.2708 133.85 16.7258 133.457 16.3854C133.065 16.045 132.465 15.8748 131.655 15.8748H110.908C108.303 15.8748 106.268 15.2232 104.801 13.9184C103.333 12.6135 102.602 10.8032 102.602 8.48919C102.602 6.17517 103.335 4.49037 104.801 3.23021C106.266 1.97004 108.278 1.34082 110.831 1.34082H139.43V6.58262H111.439C110.628 6.58262 110.017 6.74766 109.6 7.07602C109.182 7.40611 108.973 7.90983 108.973 8.59063C108.973 9.31784 109.182 9.84391 109.6 10.174C110.017 10.5024 110.655 10.6674 111.515 10.6674H132.036C134.716 10.6674 136.777 11.3035 138.218 12.574C139.658 13.8445 140.381 15.672 140.381 18.0547C140.381 20.4375 139.666 22.088 138.237 23.3481C136.808 24.6083 134.804 25.2375 132.226 25.2375H103.36V19.9957L103.358 19.994Z" fill="currentColor"></path><path d="M168.47 6.58262H152.539V1.34082H191V6.58262H175.146V25.2358H168.47V6.58262Z" fill="currentColor"></path></svg>