<svg width="142" height="28" viewBox="0 0 142 28" fill="none" xmlns="http://www.w3.org/2000/svg">
<path d="M22.799 9.82719C24.374 7.95 24.1292 5.15133 22.2522 3.57618C20.3751 2.00103 17.5767 2.24588 16.0017 4.12307L4.21366 18.1728C2.63865 20.05 2.88348 22.8486 4.7605 24.4238C6.63752 25.9989 9.43595 25.7541 11.011 23.8769L22.799 9.82719Z" fill="#2160FD"/>
<path fill-rule="evenodd" clip-rule="evenodd" d="M23.85 25.5438C23.8654 25.5439 23.881 25.544 23.8965 25.544C26.5153 25.544 28.6382 23.3938 28.6382 20.7415C28.6382 18.0891 26.5153 15.939 23.8965 15.939C22.5589 15.939 21.3417 16.4784 20.4797 17.3807L15.5357 23.1919C14.7511 24.1142 15.398 25.5438 16.6001 25.5438H23.85Z" fill="#1C1C1C"/>
<path d="M79.3958 7.82807C78.679 7.82807 78.0784 7.60883 77.594 7.17027C77.1291 6.7127 76.8965 6.15023 76.8965 5.48288C76.8965 4.81558 77.1291 4.26261 77.594 3.82409C78.0784 3.36648 78.679 3.1377 79.3958 3.1377C80.1125 3.1377 80.7034 3.36648 81.1683 3.82409C81.6528 4.26261 81.895 4.81558 81.895 5.48288C81.895 6.15023 81.6528 6.7127 81.1683 7.17027C80.7034 7.60883 80.1125 7.82807 79.3958 7.82807ZM80.6319 9.71569C81.0568 9.71569 81.4009 10.0589 81.4009 10.4823V24.7935C81.4009 25.2169 81.0568 25.5601 80.6319 25.5601H78.1015C77.6766 25.5601 77.3325 25.2169 77.3325 24.7935V10.4823C77.3325 10.0589 77.6766 9.71569 78.1015 9.71569H80.6319Z" fill="#1C1C1C"/>
<path d="M136.972 4.39697C137.397 4.39697 137.741 4.74017 137.741 5.16355V24.8035C137.741 25.2269 137.397 25.57 136.972 25.57H134.492C134.067 25.57 133.723 25.2269 133.723 24.8035V5.16355C133.723 4.74017 134.067 4.39697 134.492 4.39697H136.972Z" fill="#1C1C1C"/>
<path d="M130.797 9.47754C131.222 9.47754 131.566 9.82074 131.566 10.2441V24.5622C131.566 24.9855 131.222 25.3287 130.797 25.3287H128.405C127.98 25.3287 127.636 24.9855 127.636 24.5622V22.57C127.636 22.5234 127.545 22.5114 127.53 22.5555C127.23 23.4297 126.482 24.42 125.481 24.9568C124.682 25.3855 123.759 25.529 122.783 25.529C121.539 25.529 120.439 25.2715 119.482 24.7565C118.526 24.2224 117.77 23.4499 117.215 22.4389C116.679 21.4088 116.411 20.1881 116.411 18.7765V10.2441C116.411 9.82074 116.755 9.47754 117.18 9.47754H119.661C120.085 9.47754 120.43 9.82074 120.43 10.2441V18.2043C120.43 19.4632 120.745 20.436 121.377 21.1227C122.008 21.7904 122.869 22.1242 123.96 22.1242C125.07 22.1242 125.94 21.7904 126.572 21.1227C127.203 20.436 127.519 19.4632 127.519 18.2043V10.2441C127.519 9.82074 127.864 9.47754 128.288 9.47754H130.797Z" fill="#1C1C1C"/>
<path d="M106.461 25.4654C104.93 25.4654 103.552 25.1316 102.328 24.4639C101.103 23.7773 100.137 22.814 99.4287 21.5741C98.74 20.3342 98.3955 18.9036 98.3955 17.2822C98.3955 15.6609 98.7496 14.2303 99.4575 12.9904C100.185 11.7506 101.17 10.7968 102.414 10.1292C103.658 9.44247 105.045 9.09912 106.576 9.09912C108.107 9.09912 109.494 9.44247 110.738 10.1292C111.982 10.7968 112.957 11.7506 113.666 12.9904C114.393 14.2303 114.756 15.6609 114.756 17.2822C114.756 18.9036 114.383 20.3342 113.637 21.5741C112.91 22.814 111.915 23.7773 110.652 24.4639C109.408 25.1316 108.011 25.4654 106.461 25.4654ZM106.461 21.9747C107.188 21.9747 107.867 21.803 108.499 21.4596C109.15 21.0972 109.666 20.5631 110.049 19.8574C110.432 19.1516 110.623 18.2932 110.623 17.2822C110.623 15.7754 110.221 14.6213 109.417 13.8202C108.633 13 107.667 12.5898 106.519 12.5898C105.37 12.5898 104.404 13 103.619 13.8202C102.854 14.6213 102.471 15.7754 102.471 17.2822C102.471 18.7892 102.845 19.9527 103.591 20.7729C104.356 21.5741 105.313 21.9747 106.461 21.9747Z" fill="#1C1C1C"/>
<path d="M70.6513 13.3466C70.6513 12.3801 71.5983 10.746 72.6603 10.2051C73.3109 9.87394 74.003 9.6355 74.7639 9.53822C75.1849 9.48437 75.5306 9.83301 75.5306 10.2564V12.9292C75.5306 13.3526 75.1865 13.6958 74.7616 13.6958H74.4686C73.2059 13.6958 72.2489 13.9915 71.5983 14.5828C70.9669 15.1741 70.6513 16.2042 70.6513 17.6729V24.8033C70.6513 25.2267 70.3071 25.5699 69.8822 25.5699H67.4018C66.9769 25.5699 66.6328 25.2267 66.6328 24.8033V10.4853C66.6328 10.0619 66.9769 9.71871 67.4018 9.71871H69.8822C70.3071 9.71871 70.6513 10.0619 70.6513 10.4853V13.3466Z" fill="#1C1C1C"/>
<path d="M64.5204 16.9389C64.5204 17.2568 64.5085 17.5571 64.4851 17.8396C64.4539 18.2131 64.1302 18.484 63.7541 18.484H53.6167C53.1668 18.484 52.8054 18.8703 52.9127 19.3059C53.0999 20.0667 53.4579 20.6893 53.9866 21.1735C54.6945 21.8221 55.5654 22.1463 56.5985 22.1463C57.9193 22.1463 58.9032 21.6458 59.5496 20.6448C59.7084 20.3993 59.9699 20.2293 60.2628 20.2293H63.0851C63.6003 20.2293 63.9698 20.7261 63.7564 21.1934C63.2539 22.2939 62.4941 23.2315 61.4779 24.0061C60.1767 24.9789 58.5791 25.4654 56.6847 25.4654C55.154 25.4654 53.7759 25.1316 52.5513 24.4639C51.3458 23.7773 50.3988 22.814 49.7098 21.5741C49.04 20.3342 48.7051 18.9036 48.7051 17.2822C48.7051 15.6418 49.04 14.2016 49.7098 12.9618C50.3796 11.7219 51.317 10.7682 52.5228 10.1006C53.7282 9.43297 55.1155 9.09912 56.6847 9.09912C58.1961 9.09912 59.5454 9.42342 60.7316 10.0719C61.9374 10.7205 62.8652 11.6456 63.5157 12.8473C64.1855 14.03 64.5204 15.3938 64.5204 16.9389ZM59.5754 15.7944C60.0056 15.7944 60.3628 15.4384 60.269 15.0199C60.1167 14.3445 59.7738 13.7824 59.2393 13.3338C58.5122 12.7043 57.6221 12.3895 56.5697 12.3895C55.5746 12.3895 54.7329 12.6947 54.0439 13.3051C53.5663 13.7267 53.2203 14.2694 53.0054 14.9333C52.8616 15.3773 53.2284 15.7944 53.6963 15.7944H59.5754Z" fill="#1C1C1C"/>
<path d="M39.6434 20.7738C39.7592 21.125 40.2575 21.125 40.3736 20.7738L43.853 10.2455C43.9568 9.93113 44.2513 9.71875 44.5831 9.71875H47.1989C47.7345 9.71875 48.106 10.2507 47.9202 10.7514L42.6983 24.8191C42.5307 25.2704 42.0993 25.5699 41.6163 25.5699H38.3446C37.8613 25.5699 37.4291 25.2696 37.2622 24.8174L32.0656 10.7502C31.8808 10.2498 32.2523 9.71875 32.7872 9.71875H35.4339C35.7657 9.71875 36.0603 9.93113 36.1641 10.2455L39.6434 20.7738Z" fill="#1C1C1C"/>
<path d="M90.643 25.5107C89.3545 25.5107 88.1987 25.2802 87.176 24.8192C86.1528 24.3389 85.338 23.6954 84.7317 22.8887C84.3091 22.3081 84.0238 21.6829 83.8758 21.0128C83.7808 20.5824 84.138 20.209 84.5802 20.209H87.0921C87.4809 20.209 87.7931 20.5072 87.9519 20.8605C88.1015 21.1933 88.3352 21.4851 88.6536 21.7361C89.1842 22.1395 89.8379 22.3412 90.6146 22.3412C91.3724 22.3412 91.9599 22.1875 92.3767 21.8802C92.8124 21.5728 93.0304 21.179 93.0304 20.6988C93.0304 20.1802 92.7651 19.796 92.2345 19.5463C91.7231 19.2773 90.8987 18.9892 89.7621 18.6818C88.5875 18.3937 87.6212 18.096 86.8634 17.7886C86.1243 17.4813 85.4799 17.0107 84.9305 16.3767C84.4002 15.7429 84.1349 14.888 84.1349 13.8124C84.1349 12.9288 84.381 12.122 84.8739 11.392C85.3853 10.6621 86.1055 10.0858 87.0337 9.66318C87.9811 9.2406 89.0892 9.0293 90.3589 9.0293C92.2345 9.0293 93.7313 9.50952 94.8491 10.47C95.7715 11.2467 96.3521 12.2524 96.5909 13.487C96.6751 13.9235 96.3175 14.3022 95.8715 14.3022H93.5914C93.1934 14.3022 92.8789 13.9893 92.7266 13.6225C92.5928 13.2995 92.3814 13.0266 92.0922 12.8039C91.6377 12.4197 91.0217 12.2276 90.2451 12.2276C89.5253 12.2276 88.9662 12.3621 88.5682 12.631C88.1895 12.8999 87.9999 13.2745 87.9999 13.7547C87.9999 14.2926 88.2652 14.7056 88.7959 14.9937C89.3261 15.2626 90.1505 15.5412 91.2682 15.8293C92.4052 16.1174 93.343 16.4152 94.0816 16.7225C94.8206 17.0299 95.4554 17.5101 95.9861 18.1632C96.5355 18.7971 96.8197 19.6423 96.8385 20.6988C96.8385 21.6209 96.5828 22.4468 96.071 23.1768C95.5785 23.9067 94.8587 24.483 93.9113 24.9056C92.9827 25.309 91.8934 25.5107 90.643 25.5107Z" fill="#1C1C1C"/>
</svg>
